<svg width="133.333" height="133.333" viewBox="0 0 100 100" xmlns="http://www.w3.org/2000/svg" xmlns:xlink="http://www.w3.org/1999/xlink" fill="#FFFFFF" overflow="hidden"><g><path d="M57.812 81.25 57.812 79.6875 56.0268 79.6875C55.3549 79.6875 54.683 79.7812 54.0385 79.9688L53.8237 80.0312 51.6909 80.6445C51.3237 80.75 50.9487 80.8047 50.5659 80.8047 50.2612 80.8047 49.9604 80.7695 49.6362 80.6953L42.2339 79.1484C41.812 79.0625 41.5073 78.6836 41.5073 78.2578 41.5073 77.7539 41.9175 77.3437 42.4175 77.3437L46.4253 77.3437C47.8862 77.3437 49.3433 77.1523 50.7534 76.7734 51.1713 76.6601 51.4174 76.2344 51.3041 75.8164 51.1909 75.3984 50.7651 75.1523 50.3471 75.2656 49.4096 75.5195 48.4526 75.6758 47.4838 75.7461L47.4838 75.6758C47.4838 75.207 47.7963 74.7851 48.2455 74.6563L51.2846 73.7578C51.8081 73.6016 52.3432 73.5039 52.8823 73.4453 53.1909 73.4141 53.5034 73.3906 53.8159 73.3906 54.2691 73.3906 54.7261 73.4258 55.1714 73.4922L57.812 73.8945 57.812 72.6445C57.812 72.5312 57.8433 72.4258 57.8862 72.3281 57.9956 72.082 58.2261 71.8984 58.5112 71.8672L68.7493 70.793 68.7493 49.629C68.05 49.4649 67.4054 49.1212 66.8859 48.5978L61.2531 42.9689 60.2961 42.9689C56.1789 42.9689 52.2258 44.5939 49.3001 47.4923L40.1282 56.5821C38.7688 57.9298 36.9602 58.7305 35.0462 58.8321L22.6552 59.4922 22.6552 60.5938 20.2607 60.2267C19.7334 60.1446 19.1982 60.1056 18.6669 60.1056 17.663 60.1056 16.6591 60.2501 15.6903 60.5353L12.6512 61.4337C11.534 61.7618 10.7684 62.7892 10.7684 63.9532L10.7645 64.0626 7.26061 64.0626C5.89341 64.0626 4.78791 65.172 4.78791 66.5353 4.78791 67.7072 5.60822 68.7189 6.75671 68.9572L14.159 70.5041C14.5692 70.5978 14.991 70.6447 15.409 70.6447 15.9325 70.6447 16.4598 70.5705 16.9676 70.4259L19.3153 69.7502C19.8192 69.6056 20.3426 69.5314 20.87 69.5314L22.6552 69.5314 22.6552 71.0939 36.3852 71.0939C39.8305 71.0939 43.2329 70.3361 46.354 68.8673L51.5181 66.4415C51.5181 68.6837 51.858 70.504 52.3111 71.9337 51.8189 72.004 51.3267 72.1134 50.8463 72.254L47.8072 73.1525C46.69 73.4806 45.9244 74.508 45.9244 75.672L45.9205 75.7813 42.4166 75.7813C41.0494 75.7813 39.9439 76.8907 39.9439 78.254 39.9439 79.4259 40.7642 80.4376 41.9127 80.6759L49.315 82.2228C49.7251 82.3166 50.147 82.3635 50.565 82.3635 51.0884 82.3635 51.6158 82.2892 52.1236 82.1447L53.4713 81.758 51.5651 91.0939C51.3659 92.0626 52.108 92.9689 53.0963 92.9689L68.7483 92.9689 68.7483 82.0309 58.5923 82.0309C58.1626 82.0309 57.811 81.6793 57.811 81.2496ZM15.41 69.086C15.1053 69.086 14.8045 69.0508 14.4803 68.9766L7.07801 67.4297C6.65613 67.3438 6.35145 66.9649 6.35145 66.5391 6.35145 66.0352 6.76161 65.625 7.26161 65.625L11.4257 65.625C12.8866 65.625 14.3437 65.4336 15.7538 65.0547 16.1718 64.9414 16.4179 64.5157 16.3046 64.0977 16.1913 63.6797 15.7655 63.4336 15.3476 63.5469 14.3593 63.8125 13.3476 63.9766 12.3281 64.0352L12.3281 63.9571C12.3281 63.4883 12.6406 63.0664 13.0898 62.9376L16.1289 62.0391C16.9531 61.7969 17.8047 61.6719 18.6641 61.6719 19.1172 61.6719 19.5742 61.7071 20.0196 61.7735L22.6563 62.1758 22.6563 67.9688 20.8711 67.9688C20.1992 67.9688 19.5273 68.0626 18.8828 68.2501L16.5351 68.9259C16.1679 69.0313 15.789 69.086 15.4101 69.086Z"/><path d="M89.516 73.211 89.5277 72.9727 83.0629 79.4883C81.4613 81.1055 79.2387 82.0313 76.9652 82.0313L70.3129 82.0313 70.3129 92.9693 89.2969 92.9693C90.211 92.9693 90.9336 92.1842 90.8555 91.274L89.5743 76.368C89.4845 75.3172 89.4649 74.2625 89.5157 73.2118Z"/><path d="M49.074 24.559C50.9802 24.559 52.7576 24.1918 54.3748 23.5199 53.1756 24.4652 51.9842 24.9457 51.2928 24.9457 49.9998 24.9457 48.949 25.9965 48.949 27.2895 48.949 28.5825 49.9998 29.6333 51.2928 29.6333 52.3748 29.6333 53.6639 29.2896 54.9803 28.6411 54.9803 28.645 54.9803 28.6489 54.9842 28.6489 53.5311 30.0473 51.7069 30.8755 49.7772 30.8755 48.4842 30.8755 47.4334 31.9263 47.4334 33.2193 47.4334 34.5123 48.4842 35.5631 49.7772 35.5631 51.9334 35.5631 53.992 34.9381 55.8163 33.8483 54.9491 34.7858 53.9101 35.2624 52.7147 35.7038 51.4999 36.153 50.8827 37.5007 51.3319 38.7155 51.6835 39.6608 52.578 40.2467 53.5311 40.2467 53.8006 40.2467 54.078 40.1998 54.3436 40.0983 56.453 39.317 58.2616 38.2897 59.6913 36.528 62.1405 38.5944 65.2968 39.8444 68.7499 39.8444 74.1561 39.8444 78.8399 36.7897 81.1949 32.321 81.4644 34.0593 81.6519 35.9108 81.6519 37.7312 81.6519 39.0242 82.7027 40.075 83.9957 40.075 85.2887 40.075 86.3395 39.0242 86.3395 37.7312 86.3395 34.4812 85.8317 31.1882 85.2575 28.5085 86.1872 29.1765 87.2927 29.7741 88.6286 30.2312 88.8786 30.3171 89.1325 30.3562 89.3864 30.3562 90.363 30.3562 91.2731 29.7429 91.6052 28.7703 92.0232 27.5437 91.367 26.2117 90.1443 25.7937 85.9216 24.3523 85.2888 20.7937 85.2693 20.6687 85.2537 20.5437 85.2264 20.4226 85.1873 20.3015 82.9725 13.114 75.4842 10.3796 72.9213 9.63749 71.8275 7.77419 69.6596 5.97729 65.5932 5.97729 60.7885 5.97729 58.5112 8.48899 56.6791 10.5046 55.0541 12.2937 53.9838 13.4773 51.2924 13.4773 49.9994 13.4773 48.9486 14.5281 48.9486 15.8211 48.9486 17.1141 49.9994 18.1649 51.2924 18.1649 52.8393 18.1649 54.1205 17.8993 55.2104 17.4735 53.644 19.0165 51.5463 19.868 49.0776 19.868 47.7846 19.868 46.7338 20.9188 46.7338 22.2118 46.7299 23.5087 47.7807 24.5595 49.0736 24.5595ZM80.679 29.5121C79.0892 34.5863 74.3431 38.2816 68.749 38.2816 65.6318 38.2816 62.7881 37.1293 60.5967 35.2347 59.5889 34.3636 58.7295 33.3363 58.0381 32.1917 57.8037 31.8011 57.5889 31.3987 57.3975 30.9808 56.9404 29.9847 56.6123 28.9183 56.4287 27.8011 56.3858 27.5472 56.3389 27.3011 56.3154 27.0433 56.2725 26.6292 56.249 26.2073 56.249 25.7816 56.249 25.3441 56.2725 24.9144 56.3154 24.4886 56.7569 24.4769 57.1826 24.4534 57.5928 24.4144 58.5849 24.3206 59.499 24.1566 60.3271 23.9222 61.1592 23.6878 61.9091 23.3909 62.5928 23.0394 65.8739 21.3558 67.4989 18.4847 68.2919 15.8402 68.7099 17.7894 69.6669 19.9652 71.831 20.9769 73.0928 21.5667 74.0771 22.6058 74.4755 23.9417 75.1279 26.1292 76.7373 29.1331 80.6786 29.4886L80.6904 29.4886C80.6826 29.5003 80.6826 29.5042 80.6786 29.512Z"/><path d="M21.875 11.336C22.3047 11.336 22.6562 10.9844 22.6562 10.5548L22.6562 8.21095C22.6562 7.78126 22.3047 7.4297 21.875 7.4297 21.4453 7.4297 21.0938 7.78126 21.0938 8.21095L21.0938 10.5548C21.0938 10.9883 21.4453 11.336 21.875 11.336Z"/><path d="M27.074 12.5C27.1677 12.5391 27.2693 12.5547 27.3631 12.5547 27.6716 12.5547 27.9646 12.3672 28.0896 12.0625L28.9607 9.8867C29.1209 9.48436 28.9256 9.03123 28.5271 8.8711 28.1287 8.71094 27.6716 8.90625 27.5115 9.30469L26.6404 11.4805C26.4803 11.8828 26.6756 12.336 27.074 12.5Z"/><path d="M31.496 15.117C31.7226 15.117 31.9491 15.0193 32.1015 14.8279L33.5781 13.0076C33.8515 12.6717 33.8007 12.1795 33.4648 11.9099 33.1288 11.6404 32.6367 11.6873 32.3671 12.0232L30.8905 13.8435C30.6171 14.1795 30.6678 14.6716 31.0038 14.9412 31.1483 15.0623 31.3241 15.117 31.496 15.117Z"/><path d="M15.438 12.062C15.5591 12.3667 15.8521 12.5542 16.1646 12.5542 16.2622 12.5542 16.3599 12.5347 16.4536 12.4995 16.856 12.3393 17.0474 11.8823 16.8872 11.4839L16.0161 9.3081C15.856 8.90966 15.4028 8.71435 15.0005 8.87451 14.5982 9.03467 14.4068 9.4917 14.5669 9.89011Z"/><path d="M11.426 14.828C11.5822 15.0194 11.8049 15.1171 12.0315 15.1171 12.2034 15.1171 12.3791 15.0585 12.5237 14.9413 12.8596 14.6678 12.9104 14.1757 12.6369 13.8436L11.1603 12.0233C10.8869 11.6873 10.3947 11.6366 10.0626 11.91 9.7267 12.1834 9.67592 12.6756 9.94936 13.0077Z"/><path d="M10.059 31.586 12.7621 37.4454C13.3871 38.797 13.8519 40.2188 14.1527 41.6759L14.7074 44.3947C14.9105 45.3791 15.7855 46.0939 16.7894 46.0939L26.6956 46.0939C27.6995 46.0939 28.5745 45.3791 28.7776 44.3947L29.3362 41.6759C29.6331 40.2189 30.1018 38.7931 30.7268 37.4454L33.4299 31.586C33.4455 31.5469 33.4611 31.5079 33.4728 31.4688 34.1447 29.8868 34.4845 28.2149 34.4845 26.5 34.4845 22.9844 33.0822 19.7109 30.5392 17.2852 27.9962 14.8594 24.6525 13.6133 21.1369 13.7774 14.7502 14.0743 9.55095 19.1055 9.04295 25.4764 8.87889 27.5584 9.20701 29.578 10.0195 31.4881 10.0312 31.5194 10.0429 31.5545 10.0586 31.5858ZM20.426 44.531 16.3205 26.187 19.8517 28.2143C20.4376 28.5502 21.0939 28.7182 21.7501 28.7182 22.4024 28.7182 23.0587 28.5502 23.6446 28.2182L27.1954 26.183 23.0821 44.531ZM10.6018 25.597C11.0393 20.097 15.6956 15.589 21.2068 15.335 24.2966 15.1944 27.2263 16.2842 29.4568 18.4131 31.6873 20.542 32.9177 23.4131 32.9177 26.499 32.9177 28.0381 32.6052 29.5342 31.9919 30.9482 31.9802 30.9755 31.9685 31.0029 31.9607 31.0302L29.3045 36.788C28.6326 38.2489 28.1248 39.7841 27.8045 41.3622L27.2459 44.081C27.1912 44.3428 26.9607 44.5303 26.6951 44.5303L24.6834 44.5303 29.1014 24.7923C29.1092 24.7532 29.1014 24.7141 29.1053 24.6751 29.1092 24.6204 29.117 24.5657 29.1092 24.5071 29.1014 24.4485 29.0741 24.3938 29.0545 24.3391 29.0389 24.304 29.0389 24.2649 29.0194 24.2337 29.0155 24.2297 29.0116 24.2258 29.0077 24.2219 28.9764 24.1712 28.9334 24.1321 28.8905 24.0852 28.8631 24.054 28.8397 24.0188 28.8045 23.9954 28.7694 23.9719 28.7303 23.9602 28.6912 23.9407 28.6366 23.9133 28.5858 23.8821 28.5272 23.8665 28.5194 23.8665 28.5155 23.8586 28.5116 23.8586 28.4725 23.8508 28.4373 23.8586 28.3983 23.8547 28.3397 23.8508 28.2811 23.843 28.2225 23.8508 28.1717 23.8586 28.1248 23.8821 28.078 23.8977 28.035 23.9133 27.992 23.9172 27.953 23.9407L22.8632 26.8548C22.1718 27.2493 21.3163 27.2493 20.6249 26.8548L15.5546 23.9407C15.5155 23.9172 15.4686 23.9133 15.4257 23.8977 15.3788 23.8821 15.3358 23.8586 15.285 23.8508 15.2264 23.843 15.1678 23.8508 15.1093 23.8547 15.0702 23.8586 15.035 23.8469 14.996 23.8547 14.9882 23.8547 14.9843 23.8626 14.9804 23.8626 14.9257 23.8743 14.8788 23.9055 14.828 23.9329 14.7889 23.9524 14.7421 23.9641 14.7069 23.9915 14.6757 24.0149 14.6522 24.0501 14.6249 24.0774 14.5819 24.1204 14.535 24.1633 14.5038 24.218 14.4999 24.2219 14.496 24.2258 14.4921 24.2297 14.4726 24.2649 14.4686 24.3001 14.4569 24.3352 14.4335 24.3899 14.4101 24.4407 14.4022 24.4993 14.3944 24.5579 14.4022 24.6125 14.4061 24.6672 14.4101 24.7063 14.3983 24.7454 14.4101 24.7844L18.8242 44.5304 16.793 44.5304C16.5273 44.5304 16.2969 44.3429 16.2422 44.0812L15.6875 41.3624C15.3633 39.7882 14.8594 38.2491 14.1875 36.7882L11.5195 31.0109C11.5117 30.9875 11.5039 30.9679 11.496 30.9445 10.7539 29.2492 10.453 27.4484 10.6015 25.5968Z"/><path d="M16.406 47.656C16.1638 47.656 15.9373 47.7693 15.7888 47.9607 15.6404 48.1521 15.5896 48.4021 15.6482 48.6365L16.7693 52.9685C17.031 53.9802 17.9451 54.6873 18.992 54.6873L24.5311 54.6873C25.578 54.6873 26.492 53.9802 26.7538 52.9646L27.8749 48.6326C27.9335 48.3982 27.8827 48.1482 27.7343 47.9568 27.5858 47.7693 27.3593 47.656 27.1171 47.656ZM25.238 52.574C25.156 52.8982 24.863 53.1248 24.531 53.1248L18.9919 53.1248C18.6559 53.1248 18.3669 52.8982 18.2809 52.574L17.4137 49.2185 26.109 49.2185Z"/><path d="M76.965 80.469C78.8283 80.469 80.6447 79.7112 81.9572 78.3909L89.5002 70.7854C89.551 70.7346 89.5939 70.676 89.6447 70.6252 92.4416 67.7268 93.9845 63.926 93.9845 59.8912 93.9845 55.3092 91.9728 50.9928 88.4689 48.0472L86.0353 46.0003C83.8869 44.1487 81.0978 43.0159 78.0353 42.9769L72.4142 48.598C71.8322 49.1801 71.1017 49.5434 70.3126 49.68L70.3126 70.629 72.4103 70.4103C73.2736 70.3204 74.0119 69.7658 74.34 68.9611L77.7345 60.59C77.8986 60.1916 78.3517 59.9962 78.7501 60.1603 78.7736 60.1681 78.7853 60.1876 78.8048 60.1994 79.1603 60.383 79.3322 60.8009 79.1798 61.1798L75.7853 69.5509C75.2423 70.8907 74.0119 71.8165 72.5705 71.9689L70.3127 72.2033 68.7502 72.3674 59.3752 73.3478 59.3752 80.4689Z"/></g></svg>