<svg width="133.333" height="133.333" viewBox="0 0 100 100" xmlns="http://www.w3.org/2000/svg" xmlns:xlink="http://www.w3.org/1999/xlink" fill="#FFFFFF" overflow="hidden"><path d="M21.281 10.789 41.793 10.789C43.0469 10.789 44.0625 11.8046 44.0625 13.0585 44.0625 13.5741 43.8906 14.0468 43.6016 14.4257 43.1797 15.0468 42.8438 15.7265 42.6211 16.4452 42.3945 17.1679 42.2695 17.9452 42.2695 18.7616 42.2695 20.8944 43.1328 22.8241 44.5312 24.2225 45.9257 25.617 47.8593 26.4842 49.9921 26.4842 52.1249 26.4842 54.0546 25.6209 55.453 24.2225 56.8514 22.8241 57.7147 20.8944 57.7147 18.7616 57.7147 17.9452 57.5936 17.1678 57.3632 16.4452 57.1288 15.6991 56.7772 14.9921 56.332 14.3514 55.6132 13.3241 55.871 11.9061 56.8984 11.1912 57.2929 10.9178 57.746 10.785 58.1953 10.785L78.7073 10.785C79.9612 10.785 80.9768 11.8006 80.9768 13.0545L80.9768 30.2454C82.2893 29.7689 83.6995 29.5072 85.1604 29.5072 88.5471 29.5072 91.6135 30.8822 93.8323 33.101 96.0511 35.3198 97.4221 38.3862 97.4221 41.7729 97.4221 45.1596 96.051 48.226 93.8323 50.4448 91.6136 52.6636 88.5471 54.0386 85.1604 54.0386 83.6956 54.0386 82.2854 53.7769 80.9768 53.3003L80.9768 70.4913C80.9768 71.7491 79.9612 72.7608 78.7073 72.7608L61.5163 72.7608C61.9928 74.0733 62.2546 75.4835 62.2546 76.9444 62.2546 80.3272 60.8796 83.3975 58.6608 85.6163 56.442 87.8351 53.3756 89.2061 49.9889 89.2061 46.6022 89.2061 43.5358 87.835 41.317 85.6163 39.0982 83.3976 37.7232 80.3311 37.7232 76.9444 37.7232 75.4796 37.9849 74.0694 38.4614 72.7608L21.2704 72.7608C20.0165 72.7608 19.0009 71.7452 19.0009 70.4913L19.0009 53.3003C17.6884 53.7769 16.2782 54.0386 14.8173 54.0386 11.4345 54.0386 8.36424 52.6636 6.14544 50.4448 3.92664 48.226 2.55564 45.1596 2.55564 41.7729 2.55564 38.3862 3.92674 35.3198 6.14544 33.101 8.36414 30.8822 11.4306 29.5072 14.8173 29.5072 16.2821 29.5072 17.6923 29.7689 19.0009 30.2454L19.0009 13.0545C19.0009 11.8006 20.0165 10.785 21.2704 10.785ZM38.226 15.3359 23.554 15.3359 23.554 34.1559 23.5462 34.1559C23.5462 34.6754 23.3704 35.195 23.011 35.6207 22.2024 36.5777 20.7727 36.6949 19.8157 35.8863 19.1321 35.3043 18.343 34.8433 17.4798 34.523 16.6595 34.2222 15.765 34.0582 14.8236 34.0582 12.6908 34.0582 10.7611 34.9215 9.36273 36.3199 7.96823 37.7144 7.10103 39.648 7.10103 41.7808 7.10103 43.9136 7.96431 45.8433 9.36273 47.2417 10.7611 48.6362 12.6908 49.5034 14.8236 49.5034 15.765 49.5034 16.6595 49.3393 17.4798 49.0385 18.3001 48.7378 19.0501 48.3042 19.7103 47.7651 20.1166 47.3745 20.6713 47.1362 21.2767 47.1362 22.5306 47.1362 23.5462 48.1518 23.5462 49.4057L23.5462 68.2257 42.3662 68.2257 42.3662 68.2335C42.8858 68.2335 43.4053 68.4093 43.831 68.7687 44.7881 69.5773 44.9052 71.007 44.0966 71.964 43.5146 72.6476 43.0536 73.4367 42.7333 74.2999 42.4326 75.1202 42.2646 76.0147 42.2646 76.9561 42.2646 79.0889 43.1279 81.0186 44.5263 82.417 45.9208 83.8115 47.8544 84.6787 49.9872 84.6787 52.12 84.6787 54.0497 83.8154 55.4481 82.417 56.8465 81.0186 57.7098 79.0889 57.7098 76.9561 57.7098 76.0147 57.5457 75.1202 57.241 74.2999 56.9403 73.4796 56.5106 72.7296 55.9676 72.0694 55.577 71.6632 55.3387 71.1085 55.3387 70.4991 55.3387 69.2452 56.3543 68.2296 57.6082 68.2296L76.4282 68.2296 76.4282 49.4096 76.4361 49.4096C76.4361 48.894 76.6118 48.3705 76.9712 47.9448 77.7798 46.9878 79.2095 46.8706 80.1665 47.6792 80.8501 48.2573 81.6392 48.7222 82.5024 49.0425 83.3227 49.3433 84.2172 49.5073 85.1586 49.5073 87.2914 49.5073 89.2211 48.644 90.6195 47.2456 92.014 45.8472 92.8812 43.9175 92.8812 41.7847 92.8812 39.6519 92.0179 37.7222 90.6195 36.3238 89.2211 34.9254 87.2914 34.0621 85.1586 34.0621 84.2172 34.0621 83.3227 34.2262 82.5024 34.527 81.6821 34.8277 80.9321 35.2574 80.2719 35.8004 79.8657 36.191 79.311 36.4293 78.7055 36.4293 77.4516 36.4293 76.436 35.4137 76.436 34.1598L76.436 15.3398 61.764 15.3398C62.0843 16.4336 62.2562 17.5859 62.2562 18.7734 62.2562 22.1601 60.8812 25.2265 58.6624 27.4453 56.4436 29.6641 53.3772 31.0351 49.9905 31.0351 46.6038 31.0351 43.5374 29.664 41.3186 27.4453 39.0998 25.2266 37.7248 22.1601 37.7248 18.7734 37.7248 17.5898 37.8967 16.4375 38.217 15.3398Z"/></svg>